<svg width="160" height="35" viewBox="0 0 91 20" fill="none" xmlns="http://www.w3.org/2000/svg">
<g clip-path="url(#clip0_84_9)">
<mask id="path-1-outside-1_84_9" maskUnits="userSpaceOnUse" x="-1" y="-1" width="93" height="22" fill="black">
<rect fill="white" x="-1" y="-1" width="93" height="22"></rect>
<path d="M91 19.8046V0.195405H88.9459V11.484L86.8351 1.28598C86.7219 0.726168 86.5224 0.192765 85.3794 0.192765H84.4386V19.802H86.4927V8.84869L88.6898 18.5424C88.776 18.9358 88.9458 19.802 90.0592 19.802H91.0027L91 19.8046ZM75.3243 19.8046H73.0707L71.2726 6.3005L69.4745 19.8046H67.2209L70.2482 0.195405H71.3616C72.2188 0.195405 72.359 0.728809 72.4452 1.25957L75.327 19.8046H75.3243ZM57.2494 4.45207C57.5055 4.31212 57.8209 4.00317 57.8209 3.35886V2.60364C57.8209 1.25957 56.7075 0.0264061 55.3381 0H54.0549C52.6289 0 51.4859 1.23317 51.4859 2.60364V4.62107C51.4859 4.62107 51.3996 5.93874 52.3997 7.73171L54.8529 12.2419C54.8529 12.2419 55.7371 13.755 55.7371 14.9036V17.1455C55.7371 17.7608 55.2518 18.2387 54.6534 18.2387C54.0549 18.2387 53.5697 17.7634 53.5697 17.1745V13.7576C53.0575 13.982 52.2272 14.3464 52.0574 14.4019C51.8013 14.5419 51.4859 14.8508 51.4859 15.4951V17.5125C51.5155 18.8566 52.5992 19.9498 53.9687 20.0053H55.2518C56.6779 20.0053 57.8209 18.8857 57.8209 17.5125V15.0198C57.8209 15.0198 57.9071 13.7021 56.907 11.9092L54.4539 7.36995C54.4539 7.36995 53.5697 5.88593 53.5697 4.73726V2.85978C53.5697 2.24452 54.0549 1.76657 54.6534 1.76657C55.2518 1.76657 55.7371 2.24188 55.7371 2.85978V5.12807C56.2789 4.90362 57.0768 4.53921 57.2494 4.45471V4.45207ZM40.1449 4.45207C40.401 4.31212 40.7164 4.00317 40.7164 3.35886V2.60364C40.7164 1.25957 39.6031 0.0264061 38.2336 0H36.9505C35.5244 0 34.3814 1.23317 34.3814 2.60364V4.62107C34.3814 4.62107 34.2952 5.93874 35.2953 7.73171L37.7484 12.2419C37.7484 12.2419 38.6326 13.755 38.6326 14.9036V17.1455C38.6326 17.7608 38.1474 18.2387 37.5489 18.2387C36.9505 18.2387 36.4652 17.7634 36.4652 17.1745V13.7576C35.953 13.982 35.1255 14.3464 34.9529 14.4019C34.6968 14.5419 34.3814 14.8508 34.3814 15.4951V17.5125C34.4111 18.8566 35.4948 19.9498 36.8642 20.0053H38.1474C39.5734 20.0053 40.7164 18.8857 40.7164 17.5125V15.0198C40.7164 15.0198 40.8027 13.7021 39.8026 11.9092L37.3494 7.36995C37.3494 7.36995 36.4652 5.88593 36.4652 4.73726V2.85978C36.4652 2.24452 36.9505 1.76657 37.5489 1.76657C38.1474 1.76657 38.6326 2.24188 38.6326 2.85978V5.12807C39.1745 4.90362 39.9724 4.53921 40.1449 4.45471V4.45207ZM20.1884 17.8162V11.0087C20.1884 10.7552 20.4175 10.5334 20.6736 10.5334H21.5309C22.1859 10.5334 22.4717 10.2535 22.6145 10C22.7008 9.831 23.0432 9.02033 23.2723 8.51598H20.1911V2.68814C20.1911 2.40824 20.3906 2.21283 20.6763 2.21283H22.3315C22.9865 2.21283 23.302 1.90388 23.4152 1.65302L24.0999 0.195405H18.765C18.4227 0.195405 18.1666 0.448904 18.1369 0.755215V19.8046H22.7008C23.3559 19.8046 23.6713 19.5247 23.8141 19.2712C23.9004 19.1022 24.2428 18.3179 24.4692 17.8136H20.1911L20.1884 17.8162ZM8.78541 0.195405H0.628107C0.285748 0.195405 0 0.47531 0 0.810668V2.18379H2.88174V19.3847C2.88174 19.5247 2.96801 19.8046 3.45324 19.8046H4.90894V2.66174C4.93859 2.40824 5.13808 2.18643 5.42113 2.18643H7.0197C7.67476 2.18643 7.99016 1.90652 8.10339 1.65302L8.7881 0.195405H8.78541Z"></path>
</mask>
<path d="M91 19.8046V0.195405H88.9459V11.484L86.8351 1.28598C86.7219 0.726168 86.5224 0.192765 85.3794 0.192765H84.4386V19.802H86.4927V8.84869L88.6898 18.5424C88.776 18.9358 88.9458 19.802 90.0592 19.802H91.0027L91 19.8046ZM75.3243 19.8046H73.0707L71.2726 6.3005L69.4745 19.8046H67.2209L70.2482 0.195405H71.3616C72.2188 0.195405 72.359 0.728809 72.4452 1.25957L75.327 19.8046H75.3243ZM57.2494 4.45207C57.5055 4.31212 57.8209 4.00317 57.8209 3.35886V2.60364C57.8209 1.25957 56.7075 0.0264061 55.3381 0H54.0549C52.6289 0 51.4859 1.23317 51.4859 2.60364V4.62107C51.4859 4.62107 51.3996 5.93874 52.3997 7.73171L54.8529 12.2419C54.8529 12.2419 55.7371 13.755 55.7371 14.9036V17.1455C55.7371 17.7608 55.2518 18.2387 54.6534 18.2387C54.0549 18.2387 53.5697 17.7634 53.5697 17.1745V13.7576C53.0575 13.982 52.2272 14.3464 52.0574 14.4019C51.8013 14.5419 51.4859 14.8508 51.4859 15.4951V17.5125C51.5155 18.8566 52.5992 19.9498 53.9687 20.0053H55.2518C56.6779 20.0053 57.8209 18.8857 57.8209 17.5125V15.0198C57.8209 15.0198 57.9071 13.7021 56.907 11.9092L54.4539 7.36995C54.4539 7.36995 53.5697 5.88593 53.5697 4.73726V2.85978C53.5697 2.24452 54.0549 1.76657 54.6534 1.76657C55.2518 1.76657 55.7371 2.24188 55.7371 2.85978V5.12807C56.2789 4.90362 57.0768 4.53921 57.2494 4.45471V4.45207ZM40.1449 4.45207C40.401 4.31212 40.7164 4.00317 40.7164 3.35886V2.60364C40.7164 1.25957 39.6031 0.0264061 38.2336 0H36.9505C35.5244 0 34.3814 1.23317 34.3814 2.60364V4.62107C34.3814 4.62107 34.2952 5.93874 35.2953 7.73171L37.7484 12.2419C37.7484 12.2419 38.6326 13.755 38.6326 14.9036V17.1455C38.6326 17.7608 38.1474 18.2387 37.5489 18.2387C36.9505 18.2387 36.4652 17.7634 36.4652 17.1745V13.7576C35.953 13.982 35.1255 14.3464 34.9529 14.4019C34.6968 14.5419 34.3814 14.8508 34.3814 15.4951V17.5125C34.4111 18.8566 35.4948 19.9498 36.8642 20.0053H38.1474C39.5734 20.0053 40.7164 18.8857 40.7164 17.5125V15.0198C40.7164 15.0198 40.8027 13.7021 39.8026 11.9092L37.3494 7.36995C37.3494 7.36995 36.4652 5.88593 36.4652 4.73726V2.85978C36.4652 2.24452 36.9505 1.76657 37.5489 1.76657C38.1474 1.76657 38.6326 2.24188 38.6326 2.85978V5.12807C39.1745 4.90362 39.9724 4.53921 40.1449 4.45471V4.45207ZM20.1884 17.8162V11.0087C20.1884 10.7552 20.4175 10.5334 20.6736 10.5334H21.5309C22.1859 10.5334 22.4717 10.2535 22.6145 10C22.7008 9.831 23.0432 9.02033 23.2723 8.51598H20.1911V2.68814C20.1911 2.40824 20.3906 2.21283 20.6763 2.21283H22.3315C22.9865 2.21283 23.302 1.90388 23.4152 1.65302L24.0999 0.195405H18.765C18.4227 0.195405 18.1666 0.448904 18.1369 0.755215V19.8046H22.7008C23.3559 19.8046 23.6713 19.5247 23.8141 19.2712C23.9004 19.1022 24.2428 18.3179 24.4692 17.8136H20.1911L20.1884 17.8162ZM8.78541 0.195405H0.628107C0.285748 0.195405 0 0.47531 0 0.810668V2.18379H2.88174V19.3847C2.88174 19.5247 2.96801 19.8046 3.45324 19.8046H4.90894V2.66174C4.93859 2.40824 5.13808 2.18643 5.42113 2.18643H7.0197C7.67476 2.18643 7.99016 1.90652 8.10339 1.65302L8.7881 0.195405H8.78541Z" fill="#0F352D"></path>
<path d="M91 19.8046V0.195405H88.9459V11.484L86.8351 1.28598C86.7219 0.726168 86.5224 0.192765 85.3794 0.192765H84.4386V19.802H86.4927V8.84869L88.6898 18.5424C88.776 18.9358 88.9458 19.802 90.0592 19.802H91.0027L91 19.8046ZM75.3243 19.8046H73.0707L71.2726 6.3005L69.4745 19.8046H67.2209L70.2482 0.195405H71.3616C72.2188 0.195405 72.359 0.728809 72.4452 1.25957L75.327 19.8046H75.3243ZM57.2494 4.45207C57.5055 4.31212 57.8209 4.00317 57.8209 3.35886V2.60364C57.8209 1.25957 56.7075 0.0264061 55.3381 0H54.0549C52.6289 0 51.4859 1.23317 51.4859 2.60364V4.62107C51.4859 4.62107 51.3996 5.93874 52.3997 7.73171L54.8529 12.2419C54.8529 12.2419 55.7371 13.755 55.7371 14.9036V17.1455C55.7371 17.7608 55.2518 18.2387 54.6534 18.2387C54.0549 18.2387 53.5697 17.7634 53.5697 17.1745V13.7576C53.0575 13.982 52.2272 14.3464 52.0574 14.4019C51.8013 14.5419 51.4859 14.8508 51.4859 15.4951V17.5125C51.5155 18.8566 52.5992 19.9498 53.9687 20.0053H55.2518C56.6779 20.0053 57.8209 18.8857 57.8209 17.5125V15.0198C57.8209 15.0198 57.9071 13.7021 56.907 11.9092L54.4539 7.36995C54.4539 7.36995 53.5697 5.88593 53.5697 4.73726V2.85978C53.5697 2.24452 54.0549 1.76657 54.6534 1.76657C55.2518 1.76657 55.7371 2.24188 55.7371 2.85978V5.12807C56.2789 4.90362 57.0768 4.53921 57.2494 4.45471V4.45207ZM40.1449 4.45207C40.401 4.31212 40.7164 4.00317 40.7164 3.35886V2.60364C40.7164 1.25957 39.6031 0.0264061 38.2336 0H36.9505C35.5244 0 34.3814 1.23317 34.3814 2.60364V4.62107C34.3814 4.62107 34.2952 5.93874 35.2953 7.73171L37.7484 12.2419C37.7484 12.2419 38.6326 13.755 38.6326 14.9036V17.1455C38.6326 17.7608 38.1474 18.2387 37.5489 18.2387C36.9505 18.2387 36.4652 17.7634 36.4652 17.1745V13.7576C35.953 13.982 35.1255 14.3464 34.9529 14.4019C34.6968 14.5419 34.3814 14.8508 34.3814 15.4951V17.5125C34.4111 18.8566 35.4948 19.9498 36.8642 20.0053H38.1474C39.5734 20.0053 40.7164 18.8857 40.7164 17.5125V15.0198C40.7164 15.0198 40.8027 13.7021 39.8026 11.9092L37.3494 7.36995C37.3494 7.36995 36.4652 5.88593 36.4652 4.73726V2.85978C36.4652 2.24452 36.9505 1.76657 37.5489 1.76657C38.1474 1.76657 38.6326 2.24188 38.6326 2.85978V5.12807C39.1745 4.90362 39.9724 4.53921 40.1449 4.45471V4.45207ZM20.1884 17.8162V11.0087C20.1884 10.7552 20.4175 10.5334 20.6736 10.5334H21.5309C22.1859 10.5334 22.4717 10.2535 22.6145 10C22.7008 9.831 23.0432 9.02033 23.2723 8.51598H20.1911V2.68814C20.1911 2.40824 20.3906 2.21283 20.6763 2.21283H22.3315C22.9865 2.21283 23.302 1.90388 23.4152 1.65302L24.0999 0.195405H18.765C18.4227 0.195405 18.1666 0.448904 18.1369 0.755215V19.8046H22.7008C23.3559 19.8046 23.6713 19.5247 23.8141 19.2712C23.9004 19.1022 24.2428 18.3179 24.4692 17.8136H20.1911L20.1884 17.8162ZM8.78541 0.195405H0.628107C0.285748 0.195405 0 0.47531 0 0.810668V2.18379H2.88174V19.3847C2.88174 19.5247 2.96801 19.8046 3.45324 19.8046H4.90894V2.66174C4.93859 2.40824 5.13808 2.18643 5.42113 2.18643H7.0197C7.67476 2.18643 7.99016 1.90652 8.10339 1.65302L8.7881 0.195405H8.78541Z" stroke="#0F352D" stroke-width="0.6" mask="url(#path-1-outside-1_84_9)"></path>
</g>
<defs>
<clipPath id="clip0_84_9">
<rect width="91" height="20" fill="white"></rect>
</clipPath>
</defs>
</svg>